PathFileType	4	(X/Y/Z)	/Users/itak/Documents/Research/Walk-IL/dataset/trc/00478_00167.trc
DataRate	CameraRate	NumFrames	NumMarkers	Units	OrigDataRate	OrigDataStartFrame	OrigNumFrames
100.000000	100.000000	4	53	mm	100.000000	475	543
Frame#	Time	RPSI			LPSI			L3			STRN			T10			C7			CLAV			RBAK			LBAK			LSHO			LUPA			LAEL			LAOL			LWTS			LWPS			LFRA			LIFD			LHPS			LHTS			RSHO			RUPA			RAEL			RAOL			RWTS			RWPS			RFRA			RIFD			RHTS			RHPS			RBHD			LFHD			RFHD			LBHD			LHIP			RHIP			RASI			LASI			LKNE			LTHI			LANK			LTIP			LTOE			LMT1			LMT5			LHEE			RKNE			RTHI			RANK			RTIP			RTOE			RMT1			RMT5			RHEE			
		X1	Y1	Z1	X2	Y2	Z2	X3	Y3	Z3	X4	Y4	Z4	X5	Y5	Z5	X6	Y6	Z6	X7	Y7	Z7	X8	Y8	Z8	X9	Y9	Z9	X10	Y10	Z10	X11	Y11	Z11	X12	Y12	Z12	X13	Y13	Z13	X14	Y14	Z14	X15	Y15	Z15	X16	Y16	Z16	X17	Y17	Z17	X18	Y18	Z18	X19	Y19	Z19	X20	Y20	Z20	X21	Y21	Z21	X22	Y22	Z22	X23	Y23	Z23	X24	Y24	Z24	X25	Y25	Z25	X26	Y26	Z26	X27	Y27	Z27	X28	Y28	Z28	X29	Y29	Z29	X30	Y30	Z30	X31	Y31	Z31	X32	Y32	Z32	X33	Y33	Z33	X34	Y34	Z34	X35	Y35	Z35	X36	Y36	Z36	X37	Y37	Z37	X38	Y38	Z38	X39	Y39	Z39	X40	Y40	Z40	X41	Y41	Z41	X42	Y42	Z42	X43	Y43	Z43	X44	Y44	Z44	X45	Y45	Z45	X46	Y46	Z46	X47	Y47	Z47	X48	Y48	Z48	X49	Y49	Z49	X50	Y50	Z50	X51	Y51	Z51	X52	Y52	Z52	X53	Y53	Z53	

476	4.75	-666.089599609375	951.9462280273438	-440.4408874511719	-664.5120239257812	951.8905029296875	-298.869140625	-669.6468505859375	1039.185913085938	-383.2100219726562	-907.1978759765625	1274.296264648438	-362.9149169921875	-633.5303955078125	1157.166870117188	-376.6336364746094	-655.5176391601562	1433.620849609375	-384.8215026855469	-854.3890380859375	1382.230712890625	-362.6311340332031	-617.9190673828125	1303.499267578125	-481.8142700195312	-628.5921630859375	1379.328125	-286.0692138671875	-721.6048583984375	1418.793701171875	-200.8332366943359	-728.354248046875	1297.551513671875	-102.8384094238281	-784.4298095703125	1082.221801757812	-84.57547760009766	-716.2831420898438	1061.186645507812	-159.777587890625	-897.7239990234375	897.0365600585938	-123.2336349487305	-842.7271118164062	870.7479858398438	-80.30452728271484	-816.0538940429688	997.8758544921875	-76.80722808837891	-925.4218139648438	740.9447631835938	-114.3152236938477	-860.4553833007812	797.0452880859375	-80.17485046386719	-923.5341796875	815.4418334960938	-110.9934234619141	-734.090576171875	1414.2099609375	-540.8590698242188	-728.9744262695312	1353.350219726562	-617.5985107421875	-781.4142456054688	1071.469116210938	-679.9959106445312	-733.8006591796875	1045.729614257812	-639.0481567382812	-915.0078125	882.8753662109375	-640.1128540039062	-852.00537109375	860.8104248046875	-698.1141357421875	-793.9042358398438	1014.81201171875	-691.2793579101562	-938.464599609375	728.6056518554688	-652.9346313476562	-943.7568969726562	788.7772827148438	-653.2654418945312	-879.90966796875	777.4932861328125	-697.7181396484375	-773.1373901367188	1644.91845703125	-470.1762084960938	-853.682373046875	1659.111938476562	-280.2042541503906	-894.0767211914062	1656.901489257812	-403.8462524414062	-703.1023559570312	1653.324584960938	-307.3157653808594	-803.642578125	866.8777465820312	-174.8862457275391	-790.6270141601562	860.9763793945312	-578.3197631835938	-891.88916015625	908.0282592773438	-512.055419921875	-902.5532836914062	910.089111328125	-253.2451934814453	-822.7607421875	450.0390625	-187.9517822265625	-846.0972900390625	603.1533203125	-175.2219085693359	-724.1762084960938	45.2629280090332	-158.6266326904297	-805.5660400390625	301.4054870605469	-163.407470703125	-952.2046508789062	43.45139312744141	-245.4602508544922	-872.2714233398438	46.81259918212891	-268.7374267578125	-878.9450073242188	49.05814361572266	-156.4195251464844	-673.842529296875	46.92113494873047	-219.3039855957031	-814.210693359375	470.61669921875	-560.482421875	-838.6974487304688	731.515869140625	-586.1082763671875	-775.3174438476562	41.62761688232422	-575.406982421875	-817.9016723632812	329.600830078125	-574.3541870117188	-981.7410278320312	46.2971305847168	-498.3180236816406	-915.1160888671875	50.36327743530273	-473.2048645019531	-911.3187866210938	47.41934204101562	-581.9851684570312	-705.6734008789062	31.64662551879883	-539.0458374023438	
477	4.76	-666.6703491210938	951.7487182617188	-440.8816833496094	-665.19677734375	951.5728759765625	-299.4090576171875	-670.5189208984375	1039.2177734375	-384.3277893066406	-908.5844116210938	1274.386474609375	-364.3521423339844	-634.6094360351562	1157.266967773438	-378.1736755371094	-656.823974609375	1433.518310546875	-386.6737670898438	-856.0098266601562	1382.499633789062	-364.3502502441406	-619.5147094726562	1303.2763671875	-483.718505859375	-629.9826049804688	1379.518310546875	-287.7161560058594	-723.3126831054688	1418.826293945312	-202.3488311767578	-729.90576171875	1297.127807617188	-104.7593994140625	-783.88037109375	1080.728637695312	-89.21109008789062	-714.1926879882812	1061.598022460938	-163.5723114013672	-891.7450561523438	892.4453125	-129.3538665771484	-836.2889404296875	867.4192504882812	-86.38204193115234	-813.5349731445312	995.7267456054688	-82.11883544921875	-912.829345703125	734.5115356445312	-124.3444976806641	-850.7769775390625	792.7548828125	-88.23674011230469	-914.3862915039062	808.9404907226562	-118.8391494750977	-735.7171630859375	1413.9189453125	-542.7205200195312	-730.9758911132812	1352.848510742188	-619.3502807617188	-785.15087890625	1071.0498046875	-681.4219970703125	-737.75390625	1044.662719726562	-640.6075439453125	-921.9032592773438	885.2933349609375	-640.5554809570312	-859.269287109375	861.4500122070312	-698.2300415039062	-798.4974365234375	1014.472229003906	-692.4362182617188	-949.141357421875	731.636962890625	-652.603515625	-952.8964233398438	791.8696899414062	-653.29248046875	-889.1846313476562	778.8125610351562	-697.4488525390625	-771.5038452148438	1644.742309570312	-473.1259460449219	-851.4208984375	1661.572875976562	-283.1300964355469	-892.1201782226562	1659.425537109375	-406.6720886230469	-701.029541015625	1652.775390625	-310.441650390625	-803.8483276367188	866.9755249023438	-176.0508270263672	-791.0264892578125	860.7937622070312	-578.8168334960938	-892.5056762695312	908.0323486328125	-513.0531616210938	-903.232177734375	910.2540283203125	-254.2039184570312	-825.2742919921875	449.9358520507812	-188.5214233398438	-847.767822265625	603.2140502929688	-175.7201080322266	-724.1688232421875	45.36544799804688	-158.714111328125	-807.1986694335938	301.0198364257812	-163.8844604492188	-952.191650390625	43.45634460449219	-245.4734039306641	-872.27490234375	46.75312423706055	-268.8125305175781	-878.9257202148438	49.13535308837891	-156.4992218017578	-673.87890625	46.9146728515625	-219.4350891113281	-814.83447265625	470.5507202148438	-560.781005859375	-839.045166015625	731.4395141601562	-586.7168579101562	-775.2979125976562	41.66862487792969	-575.37255859375	-818.4191284179688	329.4184265136719	-574.5419311523438	-981.7689819335938	46.29012298583984	-498.3303527832031	-915.126708984375	50.32060623168945	-473.1710205078125	-911.2911376953125	47.42741394042969	-581.95361328125	-705.6847534179688	31.67203140258789	-539.0025634765625	
478	4.77	-667.1009521484375	951.4884643554688	-441.2026977539062	-665.8218383789062	951.2152099609375	-299.81298828125	-671.2166137695312	1039.24169921875	-385.2473449707031	-909.8854370117188	1274.352172851562	-365.7565002441406	-635.53369140625	1157.425415039062	-379.5906066894531	-658.1937866210938	1433.463134765625	-388.4565124511719	-857.5740966796875	1382.620727539062	-365.9982299804688	-621.0950927734375	1303.136474609375	-485.590087890625	-631.3966674804688	1379.787109375	-289.2679138183594	-725.1067504882812	1418.822143554688	-203.8008422851562	-731.604248046875	1296.6533203125	-106.6065673828125	-783.241455078125	1079.309326171875	-93.634521484375	-712.09521484375	1061.959838867188	-167.160400390625	-885.869873046875	888.350341796875	-134.4655151367188	-829.6986083984375	864.3561401367188	-92.10114288330078	-810.979248046875	993.7432861328125	-87.09738159179688	-900.5621948242188	728.7547607421875	-133.6159362792969	-841.061279296875	788.876953125	-95.99739074707031	-905.3871459960938	803.0064086914062	-125.4534530639648	-737.431396484375	1413.661865234375	-544.5166625976562	-733.1170654296875	1352.40771484375	-621.066650390625	-788.9508666992188	1070.69287109375	-682.78271484375	-741.6689453125	1043.702514648438	-642.19873046875	-928.571044921875	887.7132568359375	-640.79052734375	-866.4667358398438	862.1774291992188	-698.2738037109375	-803.1475830078125	1014.199340820312	-693.522705078125	-959.5621948242188	734.778076171875	-652.2034301757812	-961.7689208984375	795.0108032226562	-653.2269287109375	-898.3342895507812	780.2496337890625	-697.1373901367188	-770.0575561523438	1644.483642578125	-475.9886474609375	-849.1727905273438	1663.927001953125	-285.9210510253906	-890.2940063476562	1661.867797851562	-409.3316040039062	-699.0460205078125	1652.101806640625	-313.5072021484375	-803.690673828125	867.09814453125	-177.2989807128906	-791.3607177734375	860.6116333007812	-579.2383422851562	-893.011962890625	908.0297241210938	-513.9801025390625	-903.7844848632812	910.3662719726562	-255.090087890625	-827.9475708007812	449.7966918945312	-189.0453338623047	-849.5022583007812	603.2335815429688	-176.1595611572266	-724.17041015625	45.47011947631836	-158.7916870117188	-808.9468383789062	300.5911254882812	-164.3359375	-952.196044921875	43.45054244995117	-245.4917755126953	-872.2924194335938	46.70309829711914	-268.8731994628906	-878.9219360351562	49.20360565185547	-156.5710906982422	-673.9436645507812	46.90927886962891	-219.5630340576172	-815.4860229492188	470.4728698730469	-561.0765991210938	-839.5963134765625	731.28466796875	-587.2931518554688	-775.28125	41.69778060913086	-575.3466186523438	-818.9690551757812	329.2525329589844	-574.70361328125	-981.7938842773438	46.27954483032227	-498.3428039550781	-915.1410522460938	50.28636169433594	-473.14501953125	-911.267578125	47.42908096313477	-581.9326782226562	-705.7018432617188	31.69057846069336	-538.9649658203125	
479	4.78	-667.418212890625	951.1515502929688	-441.474853515625	-666.3570556640625	950.8351440429688	-300.1484069824219	-671.7462158203125	1039.265380859375	-386.0164489746094	-911.1076049804688	1274.190673828125	-367.1202087402344	-636.3409423828125	1157.643676757812	-380.9100952148438	-659.6128540039062	1433.457885742188	-390.1766357421875	-859.1027221679688	1382.616577148438	-367.5844116210938	-622.6568603515625	1303.07861328125	-487.4314880371094	-632.8316040039062	1380.127563476562	-290.7452087402344	-726.9561767578125	1418.794799804688	-205.2071228027344	-733.38427734375	1296.158935546875	-108.3766250610352	-782.3927612304688	1077.999877929688	-97.76524353027344	-710.0521240234375	1062.27490234375	-170.6095123291016	-880.165283203125	884.8548583984375	-138.2126159667969	-822.8819580078125	861.5902099609375	-97.36898040771484	-808.2672119140625	991.95458984375	-91.61327362060547	-889.0029907226562	723.8094482421875	-141.5572814941406	-831.391357421875	785.46484375	-103.2883224487305	-896.7200317382812	797.82421875	-130.2959747314453	-739.2285766601562	1413.449096679688	-546.2442016601562	-735.3799438476562	1352.046752929688	-622.7474975585938	-792.8138427734375	1070.417358398438	-684.07421875	-745.5618896484375	1042.875	-643.8132934570312	-934.9932861328125	890.1096801757812	-640.8079833984375	-873.5813598632812	862.9999389648438	-698.2569580078125	-807.8588256835938	1014.015014648438	-694.5322265625	-969.6519165039062	737.9842529296875	-651.7363891601562	-970.3480224609375	798.1878051757812	-653.06005859375	-907.3099975585938	781.8031005859375	-696.7967529296875	-768.82470703125	1644.147583007812	-478.7550659179688	-846.9469604492188	1666.158081054688	-288.56494140625	-888.5970458984375	1664.197387695312	-411.8053894042969	-697.1586303710938	1651.321533203125	-316.5185852050781	-803.173828125	867.2306518554688	-178.6764678955078	-791.6570434570312	860.4378662109375	-579.6221923828125	-893.4352416992188	908.0115356445312	-514.8212890625	-904.1986694335938	910.427001953125	-255.8895721435547	-830.7556762695312	449.6211853027344	-189.5341033935547	-851.3084716796875	603.2071533203125	-176.5876312255859	-724.1900024414062	45.58510208129883	-158.8666839599609	-810.8004150390625	300.1337890625	-164.7643737792969	-952.2306518554688	43.42596817016602	-245.5220642089844	-872.3324584960938	46.6602897644043	-268.9218139648438	-878.9429321289062	49.2607536315918	-156.6364135742188	-674.0442504882812	46.91667556762695	-219.6933441162109	-816.1834716796875	470.3871154785156	-561.3832397460938	-840.3195190429688	731.0813598632812	-587.8612060546875	-775.2699584960938	41.71523666381836	-575.3300170898438	-819.5654296875	329.1020812988281	-574.8388061523438	-981.8161010742188	46.26312255859375	-498.3520202636719	-915.1591796875	50.25887680053711	-473.1256713867188	-911.2499389648438	47.4265022277832	-581.9195556640625	-705.7218627929688	31.70291709899902	-538.9339599609375	
